<svg xmlns="http://www.w3.org/2000/svg" xmlns:xlink="http://www.w3.org/1999/xlink" width="150" height="150"><defs><radialGradient xlink:href="#a" id="b" cx="74.734" cy="327.653" fx="74.734" fy="327.653" r="69.42" gradientTransform="matrix(1 0 0 .96935 -.394 11.915)" gradientUnits="userSpaceOnUse"/><linearGradient id="a"><stop offset="0" stop-color="#ff0"/><stop offset="1" stop-color="#ff0" stop-opacity="0"/></linearGradient></defs><g transform="translate(0 -257.312)"><path d="M25.959 304.146l82.372 81.859.093-15.277-67.04-66.898z" fill="gray"/><path d="M123.734 304.056l-82.373 81.86-.093-15.278 67.04-66.897z" fill="gray"/><path d="M123.734 304.056l-82.373 81.86-.093-15.278 67.04-66.897z" fill="gray"/><path d="M123.53 360.44l-77.123-76.642-.087 14.304 62.768 62.634z" fill="gray"/><path d="M26.534 360.512l76.697-76.218.086 14.224-62.42 62.288zM40.742 304.288l-14.665-.044-20.5 20.535-.113 14.864zM144.215 324.952l.044 14.665-20.535 20.5-14.864.113z" fill="gray"/><path d="M103.14 297.849l.044-14.665-20.535-20.501-14.864-.112zM143.995 338.924l.044-14.665-20.534-20.501-14.865-.112zM5.668 325.171l-.045 14.666 20.535 20.5 14.865.113z" fill="gray"/><path d="M82.037 262.336l-14.88-.046-20.803 20.837-.114 15.083zM108.107 385.873l-.223-10.641-65.11.146-1.663 10.362z" fill="gray"/><ellipse cx="74.34" cy="329.525" rx="69.42" ry="67.292" fill="url(#b)"/></g></svg>