<svg xmlns="http://www.w3.org/2000/svg" xmlns:osb="http://www.openswatchbook.org/uri/2009/osb" xmlns:xlink="http://www.w3.org/1999/xlink" width="150" height="150"><defs/><defs><linearGradient id="d"><stop offset="0" stop-color="#ff0"/><stop offset="1" stop-color="#ff0" stop-opacity="0"/></linearGradient><linearGradient id="c"><stop offset="0"/><stop offset="1" stop-opacity="0"/></linearGradient><linearGradient id="b" osb:paint="gradient"><stop offset="0"/><stop offset="1" stop-opacity="0"/></linearGradient><linearGradient id="a"><stop offset="0"/><stop offset="1" stop-opacity="0"/></linearGradient><radialGradient id="e" cx="75" cy="324.709" r="60.707" fx="75" fy="324.709" gradientTransform="matrix(1.19972 0 0 1.04945 -14.424 -16.563)" gradientUnits="userSpaceOnUse" xlink:href="#a"/><radialGradient id="f" cx="75.554" cy="324.115" r="72.831" fx="75.554" fy="324.115" gradientTransform="matrix(1 0 0 .87354 0 40.986)" gradientUnits="userSpaceOnUse" xlink:href="#b"/><radialGradient id="i" cx="75.25" cy="333.062" r="29.5" fx="75.25" fy="333.062" gradientTransform="matrix(1.51714 -.0083 .00847 1.55085 -41.737 -182.843)" gradientUnits="userSpaceOnUse" xlink:href="#d"/><filter id="h" width="1.015" height="1.059" x="-.008" y="-.029" color-interpolation-filters="sRGB"><feGaussianBlur stdDeviation=".346"/></filter><filter id="g" width="1.022" height="1.026" x="-.011" y="-.013" color-interpolation-filters="sRGB"><feGaussianBlur stdDeviation=".675"/></filter></defs><g transform="translate(0 -257.312)"><path fill="url(#e)" stroke="url(#f)" stroke-width="1.2" d="M21.567 387.312l17.996-17.995h17.996l63.585-62.385 26.393 26.393-26.393 26.394-73.183-70.783 27.593-27.594 27.594 27.594-71.983 71.983L3.57 333.325l26.394-26.393 63.585 62.385h17.996l17.996 17.995" filter="url(#g)"/><text x="21" y="339.312" font-family="Ubuntu Condensed" font-size="40" font-weight="400" letter-spacing="0" style="line-height:1.25;-inkscape-font-specification:'Ubuntu Condensed, '" word-spacing="0"/><g stroke="#000" filter="url(#h)" font-family="sans-serif" font-weight="400" letter-spacing="0" word-spacing="0"><text x="11.464" y="449.55" stroke-width="1.12" font-size="44.788" style="line-height:1.25" transform="scale(1.11969 .8931)"><tspan x="11.464" y="449.55" font-family="Ubuntu" style="-inkscape-font-specification:Ubuntu">W</tspan></text><text x="50.055" y="467.585" stroke-width="1.165" font-size="46.616" style="line-height:1.25" transform="scale(1.16539 .85808)"><tspan x="50.055" y="467.585" font-family="Ubuntu" style="-inkscape-font-specification:Ubuntu">B</tspan></text><text x="79.815" y="458.089" stroke-width="1.141" font-size="45.638" style="line-height:1.25" transform="scale(1.14096 .87646)"><tspan x="79.815" y="458.089" font-family="Ubuntu" style="-inkscape-font-specification:Ubuntu">N</tspan></text></g><ellipse cx="75.25" cy="333.062" fill="url(#i)" rx="29.5" ry="30"/></g></svg>